# xmcd CD Database Entry
#
# Track frame offsets:
# 150
# 16617
# 39250
# 56367
# 75827
# 103362
# 127920
# 144725
# 164425
# 186137
# 207805
# 228250
# 245405
# 264535
#
# Disc length: 3730 seconds
#
# Revision: 3
# Processed by: cddbd v1.4b41PL1 Copyright (c) Steve Scherf et al.
# Submitted via: tcd 2.0b
#
DISCID=ac0e900e
DTITLE=Urban Dub - Urban Dub
DYEAR=1900
DGENRE=
TTITLE0=This City
TTITLE1=Escape
TTITLE2=Dragon Dub
TTITLE3=Smart Monkey
TTITLE4=The Ghost Train Rides Again
TTITLE5=Dubhed Convention
TTITLE6=These Are The Days
TTITLE7=Brave New World
TTITLE8=Underwater
TTITLE9=Pentonville
TTITLE10=Soundrider
TTITLE11=War
TTITLE12=Analogue Stepper
TTITLE13=The Last Bar
EXTD=
EXTT0=
EXTT1=
EXTT2=
EXTT3=
EXTT4=
EXTT5=
EXTT6=
EXTT7=
EXTT8=
EXTT9=
EXTT10=
EXTT11=
EXTT12=
EXTT13=
PLAYORDER=
